<?xml version="1.0" encoding="iso-8859-1"?>
<!-- Generator: Adobe Illustrator 19.0.0, SVG Export Plug-In . SVG Version: 6.00 Build 0)  -->
<svg version="1.1" id="Layer_1" xmlns="http://www.w3.org/2000/svg" xmlns:xlink="http://www.w3.org/1999/xlink" x="0px" y="0px"
	 viewBox="0 0 512 512" style="enable-background:new 0 0 512 512;" xml:space="preserve">
<g>
	<g>
		<g>
			<path d="M247.467,401.067v-59.733c0-4.719-3.823-8.533-8.533-8.533s-8.533,3.814-8.533,8.533v59.733h-17.067v-34.133
				c0-4.719-3.823-8.533-8.533-8.533c-4.71,0-8.533,3.814-8.533,8.533v34.133H179.2v-59.733c0-4.719-3.823-8.533-8.533-8.533
				s-8.533,3.814-8.533,8.533v59.733h-17.067v-34.133c0-4.719-3.823-8.533-8.533-8.533S128,362.214,128,366.933v34.133h-17.067
				v-59.733c0-4.719-3.823-8.533-8.533-8.533c-4.71,0-8.533,3.814-8.533,8.533v59.733H76.8v-34.133c0-4.719-3.823-8.533-8.533-8.533
				s-8.533,3.814-8.533,8.533v34.133H42.667v-59.733c0-4.719-3.823-8.533-8.533-8.533c-4.71,0-8.533,3.814-8.533,8.533v59.733
				c-14.114,0-25.6,11.486-25.6,25.6v17.067c0,14.114,11.486,25.6,25.6,25.6h28.356L71.023,512h131.021l17.067-42.667h28.356
				c14.114,0,25.6-11.486,25.6-25.6v-17.067C273.067,412.553,261.581,401.067,247.467,401.067z M102.4,452.267h-8.533
				c-4.71,0-8.533-3.814-8.533-8.533c0-4.719,3.823-8.533,8.533-8.533h8.533c4.71,0,8.533,3.814,8.533,8.533
				C110.934,448.452,107.111,452.267,102.4,452.267z M179.2,452.267h-42.667c-4.71,0-8.533-3.814-8.533-8.533
				c0-4.719,3.823-8.533,8.533-8.533H179.2c4.71,0,8.533,3.814,8.533,8.533C187.734,448.452,183.911,452.267,179.2,452.267z"/>
			<path d="M285.536,170.667h162.799c1.724-5.478,2.91-11.179,3.499-17.067H282.029
				C282.618,159.488,283.812,165.188,285.536,170.667z"/>
			<path d="M285.536,119.467c-1.724,5.478-2.918,11.179-3.507,17.067h169.805c-0.589-5.888-1.775-11.588-3.499-17.067H285.536z"/>
			<path d="M306.097,204.8h121.677c5.001-5.103,9.336-10.846,12.945-17.067H293.143C296.762,193.954,301.088,199.697,306.097,204.8z
				"/>
			<path d="M427.77,85.333H306.094c-5.001,5.103-9.336,10.846-12.945,17.067h147.576C437.106,96.179,432.78,90.436,427.77,85.333z"
				/>
			<path d="M366.934,59.733c-13.252,0-25.754,3.123-36.949,8.533h73.899C392.687,62.857,380.186,59.733,366.934,59.733z"/>
			<path d="M469.333,365.295V247.654C496.879,220.211,512,183.927,512,145.067C512,71.39,456.396,9.677,384,1.169V0H37.999
				C26.777,0,17.041,7.603,14.276,18.569C4.77,56.422,4.719,96.452,14.318,135.066C17.032,145.98,26.786,153.6,38.033,153.6h184.081
				c3.14,54.63,36.267,101.82,85.137,123.665c-2.475,1.579-4.779,3.447-6.647,5.845c-4.983,6.383-6.716,14.549-4.753,22.4
				l8.277,33.118c2.918,11.639,13.329,19.772,25.327,19.772h18.014l1.698,6.784l-28.578,39.996
				c-9.028,12.646-10.709,29.312-4.403,43.511l16.503,37.146C339.754,501.726,355.558,512,372.957,512h45.892
				c18.458,0,35.098-11.648,41.412-28.996l20.992-57.745c3.703-10.197,3.524-21.359-0.504-31.42L469.333,365.295z M329.455,341.333
				c-4.156,0-7.765-2.816-8.772-6.852l-8.277-33.118c-0.683-2.714-0.077-5.538,1.647-7.757c1.724-2.21,4.326-3.473,7.125-3.473
				h9.225l12.8,51.2H329.455z M426.666,469.333h-59.733c-4.71,0-8.533-3.814-8.533-8.533c0-4.719,3.823-8.533,8.533-8.533h59.733
				c4.71,0,8.533,3.814,8.533,8.533C435.2,465.519,431.377,469.333,426.666,469.333z M426.666,435.2h-59.733
				c-4.71,0-8.533-3.814-8.533-8.533s3.823-8.533,8.533-8.533h59.733c4.71,0,8.533,3.814,8.533,8.533S431.377,435.2,426.666,435.2z
				 M462.011,182.878c-5.478,13.739-13.841,25.993-24.346,36.062c-0.307,0.341-0.648,0.614-1.007,0.913
				c-18.304,17.075-42.778,27.614-69.726,27.614c-26.948,0-51.43-10.547-69.734-27.631c-0.35-0.282-0.683-0.555-0.981-0.887
				c-10.513-10.069-18.876-22.323-24.354-36.053c-0.171-0.341-0.273-0.691-0.393-1.058c-4.412-11.435-6.938-23.799-6.938-36.77
				c0-12.971,2.526-25.335,6.938-36.77c0.119-0.358,0.222-0.717,0.393-1.058c5.478-13.713,13.815-25.95,24.312-36.011
				c0.324-0.367,0.683-0.666,1.067-0.973c18.304-17.058,42.76-27.588,69.692-27.588c26.94,0,51.405,10.53,69.7,27.597
				c0.375,0.299,0.734,0.589,1.05,0.956c10.505,10.061,18.85,22.306,24.329,36.036c0.162,0.324,0.256,0.666,0.375,1.015
				c4.42,11.435,6.946,23.817,6.946,36.796c0,12.979-2.526,25.361-6.946,36.796C462.267,182.212,462.173,182.554,462.011,182.878z"
				/>
			<path d="M366.934,230.4c13.244,0,25.754-3.123,36.949-8.533h-73.899C341.18,227.277,353.69,230.4,366.934,230.4z"/>
		</g>
	</g>
</g>
<g>
</g>
<g>
</g>
<g>
</g>
<g>
</g>
<g>
</g>
<g>
</g>
<g>
</g>
<g>
</g>
<g>
</g>
<g>
</g>
<g>
</g>
<g>
</g>
<g>
</g>
<g>
</g>
<g>
</g>
</svg>
